<svg width="48" height="55" viewBox="0 0 48 55" fill="none" xmlns="http://www.w3.org/2000/svg">
<path d="M30.1778 27.4643C30.2221 27.8384 30.2659 28.2084 30.3608 28.5741C30.4914 29.0787 30.981 29.4151 31.4967 29.4151C31.5946 29.4151 31.6925 29.4021 31.7904 29.3763C32.404 29.2081 32.75 28.5676 32.5933 27.966C32.5868 27.9207 32.5738 27.869 32.5607 27.8237C32.4824 27.3062 32.4367 26.7822 32.391 26.2582C32.3869 26.1548 32.3829 26.0513 32.379 25.9478C32.3511 25.2233 32.3232 24.4986 32.2604 23.7741C32.254 23.7074 32.2478 23.6407 32.2415 23.5741C32.2097 23.2335 32.1779 22.8933 32.1233 22.558C32.1085 22.4582 32.0944 22.3582 32.0803 22.2581L32.0801 22.257C32.0319 21.9157 31.9836 21.5731 31.9079 21.2383C31.7383 20.4876 31.5601 19.7398 31.3821 18.9921C31.1765 18.1289 30.971 17.2661 30.7786 16.3995C30.759 16.2848 30.7392 16.1702 30.7195 16.0557C30.5422 15.0262 30.3654 14 30.289 12.958L30.2882 12.9419C30.282 12.8184 30.276 12.7003 30.276 12.5763V12.4081C30.2629 11.7806 29.7603 11.2631 29.1205 11.2631C28.4678 11.2631 27.9912 11.7871 27.9651 12.4081C27.9418 12.917 28.0019 13.4312 28.0616 13.9412L28.0716 14.0269L28.0826 14.1224C28.0954 14.224 28.1068 14.3256 28.1182 14.427C28.1417 14.6354 28.165 14.8429 28.2001 15.0475L28.2477 15.3319C28.3616 16.0133 28.4754 16.694 28.6244 17.3698C28.8072 18.1784 28.9965 18.9806 29.1989 19.7892C29.3234 20.2879 29.4366 20.7904 29.55 21.2938C29.5851 21.4498 29.6203 21.6062 29.6558 21.7623C29.6917 21.9984 29.7293 22.2345 29.7668 22.4706C29.8043 22.7068 29.8419 22.9429 29.8778 23.179C29.925 23.4599 29.9449 23.7509 29.9647 24.0398C29.9722 24.1502 29.9797 24.2602 29.9888 24.3693C30.0214 24.9968 30.0475 25.6243 30.0736 26.2518C30.0867 26.5623 30.1128 26.8857 30.1454 27.1962C30.1567 27.2856 30.1673 27.3753 30.1778 27.4643Z" fill="#FFFFFE"/>
<path d="M39.8259 13.3235C39.9652 13.7719 40.1053 14.2227 40.2831 14.6529C40.4658 15.0863 40.9097 15.3515 41.3536 15.3515C41.5038 15.3515 41.6539 15.3192 41.7975 15.2609C42.3785 15.0216 42.6527 14.3359 42.4111 13.7601C42.36 13.6476 42.3188 13.5301 42.2789 13.4163C42.2729 13.3992 42.267 13.3823 42.261 13.3655C41.9607 12.4792 41.7322 11.5865 41.5168 10.6744C41.4918 10.5495 41.4665 10.4246 41.4411 10.2997C41.2487 9.35043 41.0558 8.39879 40.975 7.42695V7.22641C41.0076 7.12291 41.0272 7.0065 41.0272 6.89005C41.0272 6.26256 40.4985 5.74503 39.8718 5.74503C39.4083 5.74503 38.971 6.02321 38.7882 6.45017C38.6511 6.77362 38.6577 7.12291 38.6707 7.46576C38.6838 7.84097 38.736 8.22267 38.7882 8.5914C38.8889 9.24484 39.0167 9.89057 39.1448 10.5375C39.1828 10.7296 39.2208 10.9218 39.2582 11.1143C39.3822 11.7418 39.5324 12.3758 39.7217 12.9903C39.7567 13.101 39.7913 13.2122 39.8259 13.3235Z" fill="#FFFFFE"/>
<path fill-rule="evenodd" clip-rule="evenodd" d="M11.0358 53.1704C11.1391 53.2954 11.2422 53.4203 11.3453 53.5445C11.8871 54.1978 12.6835 54.9871 13.5844 55C13.7214 55 13.865 54.9806 14.0021 54.9418C14.2616 54.8675 14.511 54.7275 14.7501 54.5933C14.7817 54.5756 14.813 54.558 14.8442 54.5407C15.0792 54.3984 15.3077 54.2431 15.5296 54.0685C15.9663 53.7326 16.3639 53.3452 16.755 52.9641L16.7569 52.9622C17.3458 52.3888 17.9106 51.7955 18.4765 51.2009C18.6319 51.0376 18.7875 50.8742 18.9437 50.711C19.727 49.8895 20.5103 49.0615 21.2676 48.214C21.774 47.6479 22.2629 47.0667 22.7514 46.4861C23.0499 46.1313 23.3482 45.7768 23.6502 45.4259C24.4466 44.4943 25.2561 43.5693 26.0721 42.6507C26.9141 41.7062 27.7562 40.7617 28.5722 39.7978C29.3882 38.8275 30.1911 37.8442 30.9875 36.8545C31.1736 36.6229 31.3603 36.3915 31.547 36.16C32.8988 34.4841 34.2538 32.8042 35.4525 31.0194C35.8181 30.4825 36.1836 29.9455 36.523 29.3892C36.8821 28.807 37.215 28.2118 37.5414 27.6038C37.8155 27.1056 38.0506 26.5881 38.2725 26.0641C38.2725 26.0771 38.279 26.0965 38.2856 26.1094C38.5467 26.8598 38.8861 27.565 39.2452 28.2701C39.5063 28.8199 39.7413 29.3763 39.9501 29.9455C39.986 30.0523 40.0215 30.1599 40.0571 30.2679C40.1574 30.5723 40.2589 30.8804 40.3745 31.1811C40.3991 31.2456 40.4232 31.3108 40.4474 31.3764C40.6033 31.7979 40.764 32.2326 41.086 32.5461C41.543 32.9989 42.2545 32.973 42.718 32.5461C43.0319 32.2572 43.134 31.83 43.231 31.4243C43.2469 31.3575 43.2628 31.2913 43.2793 31.2264C43.3628 30.8898 43.4353 30.5478 43.5069 30.2103L43.5274 30.1137C43.6563 29.5069 43.7454 28.8914 43.8348 28.2743L43.8349 28.2734L43.8351 28.2726L43.8352 28.2719C43.8543 28.1398 43.8734 28.0076 43.893 27.8755C44.1739 25.9463 44.5321 24.0285 44.8902 22.1105L44.8903 22.1097C44.9981 21.5327 45.1059 20.9553 45.2116 20.3779C45.6489 17.9714 46.0275 15.552 46.3605 13.1326C46.3976 12.8707 46.4341 12.6087 46.4706 12.3468C46.6009 11.4123 46.7311 10.4786 46.8892 9.5488C47.0825 8.42046 47.2924 7.29214 47.5024 6.1638C47.5548 5.8819 47.6073 5.59999 47.6595 5.31809C47.8227 4.47712 47.9859 3.61025 47.9989 2.74988C48.0055 2.11591 47.9924 1.40431 47.653 0.835038C47.3396 0.298111 46.7195 -0.0770641 46.0798 0.0135019C45.6875 0.0690406 45.3308 0.230536 44.9758 0.3913L44.9244 0.414577C44.0125 0.831623 43.1141 1.28401 42.218 1.73524L42.2162 1.73615C42.0289 1.83046 41.8411 1.925 41.6539 2.01888C39.6624 2.99949 37.6484 3.93425 35.6342 4.86913C34.8656 5.22587 34.097 5.58262 33.3296 5.94195C33.1971 5.97847 33.07 6.03799 32.9569 6.1167C31.6547 6.72827 30.3565 7.34846 29.0683 7.98975C28.9573 8.02856 28.8464 8.08035 28.7484 8.14504L28.5135 8.26148C28.4744 8.28085 28.4351 8.30032 28.396 8.32615L28.2785 8.38439C28.2719 8.38439 28.2654 8.39086 28.2654 8.39086C28.2589 8.39086 28.2458 8.39731 28.2328 8.40378C28.2197 8.41024 28.205 8.41671 28.1903 8.42318C28.1756 8.42965 28.161 8.43612 28.1479 8.44259C28.0826 8.47493 28.0173 8.50729 27.9586 8.53964C27.9586 8.54611 27.9521 8.54611 27.9455 8.54611C27.8878 8.57829 27.8281 8.60652 27.7675 8.63516C27.7185 8.65831 27.6687 8.68183 27.6191 8.70784C27.5072 8.75322 27.3992 8.8104 27.2921 8.86711C27.2618 8.88315 27.2316 8.89916 27.2014 8.91485C27.1981 8.91809 27.1932 8.92132 27.1883 8.92454C27.1834 8.92777 27.1785 8.931 27.1753 8.93424C27.1687 8.94071 27.1622 8.94719 27.1491 8.94719H27.1426C27.1165 8.96013 27.1034 8.96659 27.0839 8.97953C27.0798 8.97953 27.0758 8.982 27.0702 8.98542L27.0647 8.98869L27.0618 8.99037L27.0577 8.99248H27.0512C25.2496 9.89167 23.4675 10.8426 21.6984 11.8065C20.6344 12.3822 19.5704 12.9709 18.5128 13.5596C18.2552 13.7043 17.9976 13.8464 17.7406 13.9883L17.7399 13.9887C17.4109 14.1702 17.0829 14.3513 16.7569 14.5364C16.5849 14.6345 16.4116 14.7312 16.2382 14.828C15.7596 15.0951 15.2798 15.3629 14.8246 15.662L14.7466 15.7137C14.2072 16.0709 13.5756 16.4892 13.395 17.1369C13.2449 17.6739 13.4799 18.2173 13.9499 18.5148C14.2828 18.7218 14.7071 18.793 15.0923 18.8253C15.7059 18.8835 16.3195 18.89 16.9331 18.8318C17.2465 18.7995 17.5663 18.7542 17.8796 18.7089C16.7671 19.9463 15.6277 21.1571 14.4907 22.3655L14.1392 22.7391C12.6052 24.3693 11.1038 26.0253 9.60891 27.6943C8.90181 28.4874 8.1901 29.2759 7.47862 30.0642C6.4955 31.1534 5.51282 32.2421 4.54333 33.3418L4.40467 33.4994C3.60896 34.4037 2.81581 35.3052 2.0693 36.2528C1.93438 36.4249 1.79762 36.5963 1.66067 36.768C1.22119 37.3187 0.779857 37.8718 0.391652 38.4588C0.182763 38.7757 0 39.1121 0 39.5003C0 39.6943 0.0522097 39.9013 0.150127 40.076C0.0130429 40.4383 0.0522097 40.8652 0.313322 41.1693C0.400607 41.2722 0.495827 41.3647 0.590562 41.4567L0.591027 41.4572C0.644921 41.5095 0.698653 41.5617 0.750674 41.6156C0.8012 41.6683 0.849557 41.721 0.897514 41.7733C0.967278 41.8493 1.03619 41.9244 1.1097 41.9973C1.31885 42.2136 1.53505 42.4187 1.7511 42.6237C2.00027 42.8601 2.24937 43.0964 2.48709 43.3493C2.97015 43.9057 3.46627 44.4555 4.00155 44.9666C4.52377 45.4582 5.01988 45.9628 5.50294 46.4932H5.4964L5.61311 46.6257C6.20142 47.2933 6.79191 47.9634 7.33071 48.6733C7.50546 48.9029 7.67608 49.1354 7.84664 49.3679C8.24315 49.9083 8.63939 50.4483 9.08669 50.9504C9.15524 51.0248 9.22215 51.1008 9.28906 51.1768C9.33891 51.2334 9.38876 51.2901 9.43928 51.346C9.60913 51.5408 9.78442 51.7302 9.95971 51.9196C10.0871 52.0572 10.2147 52.1951 10.34 52.3348C10.3915 52.3956 10.4428 52.4565 10.4939 52.5175C10.5747 52.6807 10.693 52.8261 10.8425 52.9365L11.0358 53.1704ZM30.6937 9.75581C31.4244 9.40001 32.1564 9.04688 32.8898 8.69621C32.953 8.97692 33.0114 9.25951 33.0698 9.54211C33.1072 9.72172 33.1459 9.9028 33.1847 10.0844C33.2339 10.3146 33.2835 10.5465 33.331 10.7779C33.5594 11.9617 33.7814 13.1455 33.9903 14.3358C34.1796 15.4097 34.3624 16.49 34.4733 17.5703C34.5262 18.0973 34.5756 18.6231 34.6249 19.1487C34.6912 19.8554 34.7575 20.5622 34.8323 21.2706C34.8911 21.7881 34.989 22.3122 35.0869 22.8232C35.124 23.0089 35.1603 23.1945 35.1966 23.3802C35.2691 23.7509 35.3415 24.1215 35.4198 24.4922C35.4147 24.4768 35.4105 24.4615 35.407 24.4465C35.4028 24.4249 35.3984 24.4034 35.3937 24.3822L35.3969 24.3985C35.3999 24.4137 35.4031 24.4298 35.407 24.4465C35.4132 24.4782 35.4191 24.5104 35.425 24.5426C35.4434 24.643 35.462 24.745 35.4917 24.8415C35.4982 24.8997 35.5112 24.9579 35.5243 25.0162C35.5507 25.1306 35.575 25.2467 35.5994 25.3634C35.6441 25.5766 35.6892 25.7919 35.7482 26.0028L35.6771 26.152C35.6304 26.25 35.5838 26.3479 35.5374 26.4458C35.211 27.0474 34.8781 27.6426 34.519 28.2248C34.1927 28.7488 33.8532 29.2663 33.5072 29.7774C32.1559 31.6922 30.7003 33.5229 29.2315 35.3536C29.0745 35.5499 28.9169 35.7457 28.7587 35.9411C28.808 35.7524 28.8113 35.5487 28.7615 35.3472C28.7508 35.3082 28.742 35.2673 28.7331 35.2255L28.7243 35.1851C28.7196 35.1637 28.7147 35.1422 28.7093 35.1207C28.6636 34.9073 28.6244 34.6938 28.5853 34.4738C28.4373 33.6544 28.2371 32.8465 28.0369 32.0386C27.9368 31.6347 27.8368 31.2307 27.7432 30.8253C27.5286 29.9101 27.3307 28.9948 27.1328 28.0795L27.1325 28.0784C27.0536 27.7134 26.9745 27.3478 26.8945 26.9828C26.6206 25.7216 26.3282 24.464 26.036 23.2072C25.7782 22.0983 25.5204 20.9896 25.2757 19.8798L25.2667 19.8342C24.9825 18.394 24.6994 16.9598 24.5315 15.5003C24.4531 14.8793 23.8395 14.4394 23.2259 14.517C22.5862 14.6076 22.1619 15.1898 22.2337 15.8108C22.4034 17.2275 22.6776 18.6313 22.9518 20.0286C23.1503 21.0527 23.3906 22.0665 23.6306 23.0792L23.7155 23.4377C24.0223 24.7509 24.3226 26.0642 24.6163 27.3838C24.7332 27.9037 24.8452 28.4248 24.957 28.9455L24.9572 28.9467C25.1014 29.6178 25.2454 30.2883 25.3997 30.9547C25.5149 31.4588 25.6374 31.9618 25.7599 32.4645L25.7601 32.4655C25.922 33.13 26.0839 33.7946 26.2287 34.4609C26.3201 34.9655 26.4115 35.4636 26.529 35.9617C26.653 36.4728 27.1492 36.8027 27.6649 36.7962C27.7628 36.7962 27.8607 36.7833 27.9586 36.7574C28.0267 36.7382 28.0914 36.7136 28.1524 36.684C26.968 38.1243 25.7528 39.5398 24.5184 40.9364C23.6568 41.9067 22.7951 42.8836 21.953 43.8668C21.6143 44.2622 21.2781 44.6601 20.9417 45.0583L20.9409 45.0593C20.5125 45.5663 20.0836 46.0739 19.6487 46.5773C19.2794 46.9898 18.9061 47.3984 18.5289 47.8036C18.3932 47.1818 18.2109 46.5715 18.0284 45.9609C17.8488 45.3596 17.669 44.7581 17.5337 44.145C17.3493 43.1638 17.2542 42.1699 17.1592 41.1769C17.1365 40.9392 17.1137 40.7016 17.0898 40.4641C17.0158 39.731 16.965 38.992 16.9143 38.2531C16.8889 37.8837 16.8635 37.5142 16.8352 37.1455C16.7373 35.8 16.6394 34.4674 16.5023 33.1348C16.2477 30.6507 15.9082 28.1666 15.3468 25.7278C15.2952 25.5094 15.1729 25.3235 15.0101 25.1825C15.1785 25.0016 15.3473 24.8211 15.5166 24.641L15.8088 24.3292C16.4393 23.6564 17.0704 22.9831 17.6983 22.3068C17.7108 22.3517 17.7234 22.3966 17.736 22.4415C17.8405 22.8209 17.9333 23.2061 18.0261 23.5913C18.0725 23.7839 18.119 23.9768 18.1669 24.1687C18.3542 24.9365 18.5141 25.716 18.6739 26.4951L18.6741 26.4958C18.7202 26.7208 18.7663 26.9457 18.8131 27.1704C18.8066 27.1445 18.8017 27.1202 18.7968 27.096C18.7919 27.0717 18.787 27.0475 18.7805 27.0216C19.0873 28.7359 19.368 30.4566 19.6421 32.1773C19.7923 33.1412 19.949 34.0987 20.1317 35.0561C20.2649 35.7559 20.4288 36.4557 20.5917 37.151L20.6539 37.4173C20.791 38.0706 20.9216 38.7305 21.026 39.3903C21.0672 39.6461 21.0963 39.9059 21.1255 40.1661C21.1796 40.6493 21.234 41.1337 21.3655 41.5962C21.5091 42.0943 21.9791 42.4307 22.4883 42.4372C22.5862 42.4372 22.6841 42.4242 22.7886 42.3984C23.3891 42.2302 23.7677 41.5897 23.5915 40.9881C23.5849 40.9687 23.58 40.9509 23.5751 40.9331L23.5711 40.9186L23.5663 40.9018C23.564 40.8941 23.5616 40.8863 23.5588 40.8782C23.4992 40.5014 23.449 40.1246 23.3989 39.7485C23.3175 39.1368 23.2362 38.5267 23.1149 37.9218C22.8995 36.8803 22.6711 35.8518 22.4361 34.8232C22.2337 33.7429 22.0574 32.6625 21.8877 31.5757C21.6853 30.2431 21.4634 28.917 21.2284 27.5909C21.0552 26.613 20.8482 25.6394 20.6414 24.6665C20.591 24.4295 20.5406 24.1923 20.4908 23.9553C20.396 23.495 20.2771 23.0382 20.1591 22.5847C20.1146 22.4137 20.0702 22.2428 20.0273 22.0728C19.971 21.844 19.9074 21.6164 19.8438 21.389C19.7601 21.0891 19.6763 20.7895 19.6095 20.4879C19.5993 20.416 19.582 20.3462 19.5585 20.279C19.8823 19.9206 20.2044 19.5605 20.5243 19.1986C20.5371 19.1846 20.5498 19.1704 20.5626 19.1552L20.5243 19.1986L20.5136 19.2102C20.5055 19.2191 20.4974 19.2279 20.4893 19.237C20.729 18.9617 20.9653 18.6842 21.0979 18.3401C21.235 17.9779 21.1958 17.6221 21.0587 17.2598C20.9281 16.917 20.5691 16.6453 20.2427 16.5095C19.8902 16.3671 19.4985 16.3089 19.1199 16.3089C18.8131 16.3089 18.4998 16.3348 18.193 16.3671C18.3305 16.2909 18.4689 16.2147 18.6078 16.1381C18.8578 16.0004 19.1096 15.8616 19.3615 15.7202C19.7385 15.5139 20.113 15.3052 20.4873 15.0966C20.9813 14.8213 21.4748 14.5463 21.9726 14.2776L22.3488 14.0732C24.2602 13.0347 26.1737 11.995 28.1218 11.0237C28.2327 10.9849 28.3437 10.9332 28.4417 10.8685L28.6766 10.752C28.7223 10.7326 28.7615 10.7132 28.7941 10.6938C28.8137 10.6809 28.8268 10.6744 28.8398 10.6679C28.8854 10.6486 28.9313 10.6291 28.9704 10.6033C28.9965 10.5968 29.0226 10.5839 29.0487 10.5709C29.1072 10.5452 29.1721 10.513 29.2371 10.4808L29.238 10.4803C29.238 10.4803 29.2446 10.4739 29.2511 10.4739C29.3033 10.4448 29.3588 10.4189 29.4143 10.393C29.4698 10.3671 29.5253 10.3412 29.5775 10.3121C29.6804 10.2658 29.78 10.2128 29.8786 10.1602L29.8794 10.1598C29.9181 10.1392 29.9567 10.1187 29.9952 10.0987H30.0018L30.003 10.098C30.0418 10.0788 30.0805 10.0597 30.1128 10.0405C30.1258 10.0405 30.1323 10.034 30.1388 10.0275C30.2302 9.98225 30.3233 9.93694 30.4163 9.89166C30.5093 9.84638 30.6023 9.8011 30.6937 9.75581ZM37.3651 22.4157L37.3931 22.5662C37.4032 22.5547 37.4135 22.5433 37.4239 22.5321C37.8417 22.0857 38.5075 21.8593 39.0754 22.1892C39.33 22.338 39.5324 22.5385 39.6564 22.8038C39.7628 23.0207 39.8331 23.2555 39.902 23.4853L39.911 23.5153C40.0238 23.8839 40.1313 24.255 40.2385 24.6254L40.2387 24.6261L40.2389 24.6268C40.299 24.8345 40.3592 25.0424 40.4202 25.2491C40.6095 25.7795 40.8249 26.2841 41.0729 26.7887C41.2427 27.125 41.4059 27.455 41.5625 27.7914C41.6474 27.1962 41.7388 26.6011 41.8367 26.0124C42.0586 24.7574 42.2806 23.5089 42.5156 22.2604C42.9725 19.8151 43.4099 17.3633 43.7689 14.9051C43.8721 14.1974 43.9731 13.4887 44.0741 12.7797L44.0743 12.7784C44.2226 11.7381 44.3709 10.6973 44.5261 9.65876C44.6371 8.88895 44.7808 8.11914 44.9244 7.3558C44.9843 7.03954 45.0469 6.72298 45.1096 6.40607L45.1097 6.40527C45.3406 5.23806 45.5724 4.06581 45.675 2.88574C45.675 2.83722 45.6767 2.7887 45.6783 2.74018C45.6799 2.69166 45.6816 2.64314 45.6816 2.59463C45.192 2.82104 44.7089 3.06037 44.2259 3.29973C44.2487 3.29002 44.2716 3.2787 44.2944 3.26739C44.3173 3.25607 44.3401 3.24475 44.3629 3.23505C43.2597 3.79138 42.1566 4.3477 41.0403 4.87816C40.0161 5.36857 38.9867 5.8439 37.9613 6.31745L37.5479 6.50836C36.7033 6.89833 35.8605 7.29092 35.0194 7.68645C35.1485 8.19502 35.2547 8.71047 35.3608 9.2258C35.3847 9.34212 35.4087 9.45844 35.4329 9.57466L35.4337 9.57874C35.551 10.1467 35.6682 10.7146 35.7789 11.2825C35.8148 11.4694 35.851 11.6564 35.8873 11.8436C36.0882 12.8809 36.2899 13.9221 36.4447 14.9634C36.4899 15.2741 36.5337 15.5834 36.5775 15.892L36.5777 15.8935C36.6286 16.2526 36.6793 16.6107 36.7319 16.9687C36.786 17.3438 36.8215 17.7241 36.8571 18.1047C36.8773 18.3213 36.8976 18.5384 36.9213 18.7542C36.9539 19.0614 36.98 19.3671 37.0061 19.6727C37.0322 19.9784 37.0583 20.2841 37.091 20.5914C37.1497 21.2059 37.2542 21.8076 37.3651 22.4157ZM12.8024 51.7081C12.9432 51.8794 13.0834 52.0511 13.2237 52.2228L13.2253 52.2248C13.3105 52.3149 13.3961 52.4053 13.4856 52.4911L13.4915 52.496C13.5346 52.5324 13.5725 52.5643 13.6105 52.5935C13.7213 52.5289 13.8326 52.464 13.9368 52.3994C14.1127 52.2639 14.282 52.1219 14.4513 51.98L14.4525 51.9789C15.1935 51.2912 15.8927 50.5622 16.5935 49.8315L16.8694 49.544C16.6125 49.3659 16.4248 49.0846 16.3717 48.7574C16.3652 48.7057 16.3586 48.6539 16.3456 48.6086C16.2281 48.0782 16.1041 47.5477 15.954 47.0172C15.9004 46.8327 15.8457 46.6487 15.791 46.4647C15.5793 45.7526 15.3681 45.0419 15.2228 44.3067C15.082 43.5623 15.0078 42.8055 14.9338 42.0495C14.9151 41.8595 14.8965 41.6695 14.8769 41.4798C14.8246 40.9687 14.7789 40.4642 14.7398 39.9466C14.6875 39.2577 14.6353 38.5671 14.5831 37.8765C14.5309 37.186 14.4787 36.4954 14.4264 35.8065C14.3603 34.8895 14.2669 33.9759 14.1734 33.0608L14.1733 33.0601C14.1375 32.7101 14.1017 32.3599 14.0674 32.0092C14.0428 31.7616 14.0054 31.5192 13.9681 31.2771C13.9459 31.1332 13.9237 30.9894 13.9042 30.8447C13.8763 30.6559 13.8503 30.467 13.8244 30.2785C13.7837 29.9829 13.7432 29.688 13.6953 29.3957C13.5617 28.6223 13.4237 27.8446 13.2741 27.0696C12.2847 28.1571 11.3048 29.2519 10.327 30.3466C10.2041 30.4842 10.0811 30.6219 9.95801 30.7595C10.2915 30.9614 10.5163 31.3258 10.5163 31.7375C10.5163 32.1844 10.5438 32.6352 10.5714 33.087C10.5794 33.2171 10.5873 33.3474 10.5946 33.4776C10.8035 35.8906 10.9993 38.3035 11.1756 40.7164C11.1937 40.975 11.2105 41.234 11.2273 41.4931C11.2774 42.2646 11.3275 43.037 11.4106 43.8022C11.4464 44.1412 11.4839 44.4785 11.5214 44.8159L11.5218 44.8196C11.5592 45.157 11.5967 45.4944 11.6326 45.8334C11.6783 46.2461 11.7516 46.6589 11.825 47.0716C11.8459 47.1893 11.8668 47.3071 11.8871 47.4248C11.9018 47.4924 11.9163 47.56 11.9309 47.6276C12.0066 47.9803 12.0823 48.3323 12.1809 48.6798C12.2457 48.9118 12.3205 49.1419 12.3953 49.3722C12.4561 49.5592 12.5169 49.7463 12.5725 49.9348C12.6247 50.1224 12.677 50.3164 12.7227 50.5105C12.8141 50.8987 12.8402 51.2609 12.8076 51.6555C12.8061 51.6728 12.8043 51.6904 12.8024 51.7081ZM8.2309 32.6822C7.6855 33.2871 7.13901 33.8914 6.5925 34.4945C6.47347 34.6306 6.35426 34.7666 6.23505 34.9026C5.69604 35.5175 5.15702 36.1324 4.63473 36.7639L4.43994 36.9979C3.73878 37.8399 3.03004 38.691 2.40876 39.5908C2.40876 39.7267 2.38916 39.869 2.34999 39.9919C2.40974 40.053 2.46895 40.1145 2.52808 40.1761C2.67563 40.3295 2.82296 40.4828 2.97668 40.6259C3.27043 40.8911 3.55765 41.1563 3.83182 41.441C4.08743 41.7053 4.32411 41.979 4.56201 42.2541C4.60359 42.3021 4.6452 42.3502 4.68696 42.3984C5.01418 42.7546 5.35766 43.0883 5.70134 43.4222C5.84444 43.5612 5.98757 43.7002 6.12958 43.841C6.71708 44.4297 7.27196 45.0442 7.81376 45.6717C8.35557 46.2927 8.87781 46.9331 9.38045 47.5865C9.4611 47.6923 9.54056 47.7991 9.61946 47.9063C9.61121 47.8602 9.60333 47.814 9.59584 47.7677C9.56797 47.5871 9.53728 47.4065 9.50655 47.2257C9.44374 46.856 9.38073 46.4851 9.34129 46.1116L9.34051 46.1046C9.26243 45.4083 9.18436 44.7119 9.11279 44.0092C9.06475 43.559 9.03424 43.106 9.00367 42.652C8.98855 42.4275 8.97341 42.2026 8.95613 41.9779C8.92349 41.4798 8.88434 40.9752 8.84517 40.4771C8.74072 39.0863 8.62975 37.6954 8.51878 36.3046C8.4535 35.5089 8.38822 34.7197 8.31642 33.924C8.28299 33.5117 8.25168 33.0974 8.2309 32.6822ZM6.61194 34.4722C6.62088 34.4623 6.62982 34.4521 6.63877 34.4415L6.61194 34.4722Z" fill="#FFFFFE"/>
</svg>
