<svg width="33" height="64" viewBox="0 0 33 64" fill="none" xmlns="http://www.w3.org/2000/svg">
<path d="M19.7591 32.0224C20.055 32.2556 20.3476 32.4863 20.6733 32.6778C21.1224 32.9423 21.7065 32.8339 22.0711 32.4693C22.1404 32.4 22.2004 32.3216 22.2514 32.2341C22.5663 31.6813 22.3581 30.9838 21.8219 30.6692C21.7853 30.6417 21.7395 30.6144 21.6982 30.5916C21.2769 30.2811 20.8741 29.9429 20.4713 29.6047C20.3952 29.5344 20.3192 29.464 20.2433 29.3937C19.7113 28.9011 19.1791 28.4083 18.6224 27.9404C18.5707 27.8978 18.5191 27.8551 18.4676 27.8123C18.2042 27.594 17.9412 27.3759 17.6655 27.1774C17.5845 27.1174 17.5038 27.0566 17.423 26.9958L17.4222 26.9952C17.1467 26.7879 16.8703 26.5799 16.5801 26.3966C15.9293 25.9858 15.2745 25.5829 14.6199 25.1801C13.8642 24.7152 13.1087 24.2503 12.3599 23.7736C12.265 23.7064 12.17 23.6393 12.075 23.5723C11.2217 22.9697 10.371 22.3691 9.58024 21.6863L9.56826 21.6754C9.47652 21.5925 9.38881 21.5133 9.30113 21.4256L9.1822 21.3067C8.72926 20.8722 8.00788 20.8617 7.55552 21.314C7.09394 21.7756 7.1275 22.4831 7.54816 22.9407C7.89153 23.3171 8.2976 23.6381 8.70043 23.9566L8.76809 24.0101L8.84344 24.0698C8.92436 24.1326 9.00429 24.1964 9.08404 24.26C9.24798 24.3908 9.41116 24.521 9.58064 24.6408L9.81545 24.8083C10.3778 25.2095 10.9396 25.6104 11.5228 25.9829C12.2239 26.4255 12.925 26.8589 13.6398 27.2875C14.0805 27.5521 14.5159 27.8274 14.9519 28.1032C15.0871 28.1886 15.2226 28.2743 15.3581 28.3596C15.5504 28.5011 15.7439 28.6416 15.9374 28.782C16.1309 28.9224 16.3244 29.0628 16.5168 29.2044C16.7488 29.3696 16.9686 29.5613 17.1869 29.7517C17.2703 29.8243 17.3534 29.8968 17.4369 29.9676C17.9037 30.3882 18.3659 30.8135 18.8281 31.2387C19.0569 31.449 19.304 31.6593 19.5467 31.8558C19.6179 31.911 19.6888 31.9669 19.7591 32.0224Z" fill="#FFFFFE"/>
<path d="M16.5823 15.2011C16.9978 15.4197 17.4157 15.6394 17.8456 15.8179C18.2813 15.9951 18.7827 15.8687 19.0966 15.5549C19.2027 15.4487 19.286 15.3197 19.3464 15.177C19.588 14.5969 19.297 13.9182 18.7191 13.6818C18.6033 13.6384 18.4911 13.5845 18.3824 13.5322C18.3661 13.5244 18.35 13.5166 18.3339 13.5089C17.4949 13.0946 16.7021 12.6249 15.9048 12.1323C15.7988 12.0617 15.6925 11.9913 15.5863 11.9209C14.779 11.3857 13.9697 10.8492 13.2254 10.2191L13.0836 10.0773C13.0334 9.98103 12.965 9.88486 12.8826 9.80252C12.4389 9.35882 11.6991 9.36676 11.256 9.80988C10.9282 10.1376 10.8157 10.6436 10.9884 11.0747C11.1201 11.4004 11.3717 11.6427 11.6234 11.8759C11.898 12.132 12.2048 12.365 12.5024 12.5888C13.0357 12.9797 13.5827 13.3459 14.1307 13.7128C14.2934 13.8217 14.4562 13.9307 14.6187 14.0404C15.1501 14.3964 15.7046 14.7385 16.273 15.0392C16.3761 15.0927 16.4791 15.1469 16.5823 15.2011Z" fill="#FFFFFE"/>
<path fill-rule="evenodd" clip-rule="evenodd" d="M24.4006 63.7348C24.5621 63.7502 24.7233 63.7655 24.884 63.7805C25.7291 63.8593 26.8503 63.8543 27.4965 63.2264C27.5934 63.1295 27.6812 63.0142 27.7507 62.8899C27.8816 62.6538 27.959 62.3786 28.0332 62.1146C28.043 62.0798 28.0527 62.0451 28.0625 62.0108C28.1281 61.744 28.1798 61.4727 28.2133 61.1922C28.2846 60.646 28.2918 60.0908 28.2988 59.5449L28.2989 59.5422C28.3098 58.7203 28.2896 57.9014 28.2694 57.0809C28.2638 56.8554 28.2582 56.6299 28.2533 56.4041C28.2263 55.2693 28.1947 54.1299 28.1309 52.9952C28.0887 52.2367 28.0235 51.4801 27.9583 50.7242C27.9185 50.2622 27.8787 49.8006 27.8442 49.3389C27.7486 48.117 27.6669 46.8905 27.5943 45.664C27.5219 44.4007 27.4495 43.1375 27.3449 41.8789C27.2357 40.6158 27.1082 39.3527 26.9715 38.0897C26.9394 37.7944 26.9077 37.4988 26.8761 37.2031C26.6469 35.0621 26.4171 32.9161 26.0027 30.8065C25.8816 30.1683 25.7604 29.5302 25.607 28.8968C25.4492 28.2312 25.2638 27.575 25.0646 26.9142C24.9062 26.3681 24.7065 25.836 24.4929 25.3085C24.502 25.3177 24.5204 25.3268 24.5341 25.3313C25.2494 25.6773 25.988 25.9359 26.7405 26.1806C27.3139 26.3848 27.8735 26.612 28.4237 26.8668C28.5245 26.9169 28.6257 26.9679 28.7273 27.0192C29.0134 27.1635 29.303 27.3096 29.5974 27.4405C29.6604 27.4687 29.7236 27.4977 29.7871 27.527C30.1954 27.7148 30.6164 27.9085 31.0658 27.9025C31.7091 27.8996 32.1939 27.3782 32.2197 26.7486C32.2374 26.3223 32.0076 25.9481 31.7892 25.5926C31.7533 25.5341 31.7177 25.476 31.6835 25.4185C31.5045 25.1215 31.314 24.8283 31.1259 24.539L31.0721 24.4563C30.7342 23.9361 30.362 23.4378 29.9889 22.9383L29.9883 22.9375L29.9878 22.9369L29.9874 22.9362C29.9075 22.8293 29.8276 22.7224 29.748 22.6151C28.5825 21.0523 27.4797 19.443 26.3767 17.8335L26.3762 17.8328C26.0444 17.3486 25.7123 16.8641 25.3787 16.3811C23.9864 14.3702 22.5433 12.3917 21.0679 10.4455C20.909 10.234 20.7496 10.023 20.5902 9.81199C20.0215 9.05901 19.4534 8.30672 18.9077 7.53751C18.2465 6.60301 17.5971 5.6567 16.9477 4.71038C16.7855 4.47395 16.6232 4.23752 16.4608 4.00128C15.9815 3.29123 15.484 2.56285 14.8848 1.94525C14.4412 1.49235 13.9288 0.998389 13.2862 0.835876C12.685 0.677774 11.9812 0.851004 11.5929 1.3674C11.3547 1.68407 11.2167 2.05045 11.0794 2.41516L11.0595 2.46799C10.7096 3.40764 10.3942 4.36282 10.0796 5.31553L10.079 5.31745C10.0132 5.51659 9.94733 5.7162 9.88134 5.91495C9.1665 8.01659 8.4034 10.1016 7.6402 12.187C7.34897 12.9827 7.05773 13.7785 6.76915 14.5752C6.70132 14.6947 6.65354 14.8266 6.6292 14.9623C6.14085 16.3155 5.66141 17.672 5.204 19.0364C5.15297 19.1423 5.11113 19.2574 5.08763 19.3724L5.0038 19.6209C4.98985 19.6622 4.97583 19.7038 4.96645 19.7497L4.92455 19.8739C4.91993 19.8785 4.91989 19.8877 4.91989 19.8877C4.91527 19.8924 4.9106 19.9061 4.90594 19.92C4.90129 19.9338 4.89547 19.9487 4.88966 19.9637C4.88385 19.9786 4.87804 19.9936 4.87338 20.0074C4.85009 20.0764 4.8268 20.1455 4.80813 20.2099C4.8127 20.2145 4.80811 20.2191 4.80349 20.2237C4.78543 20.2873 4.76316 20.3495 4.74055 20.4126C4.72228 20.4636 4.70372 20.5154 4.68706 20.5688C4.63999 20.6801 4.60407 20.7969 4.56844 20.9127C4.55835 20.9455 4.54829 20.9782 4.53801 21.0107C4.538 21.0152 4.53682 21.021 4.53564 21.0267C4.53447 21.0325 4.53329 21.0382 4.53327 21.0428C4.53323 21.052 4.53318 21.0612 4.52395 21.0705L4.51933 21.0751C4.51001 21.1027 4.50536 21.1165 4.50066 21.1395C4.49781 21.1423 4.4967 21.1469 4.49517 21.1533L4.49363 21.1595L4.49271 21.1628L4.49134 21.1671L4.48675 21.1717C3.8486 23.0815 3.26087 25.014 2.69154 26.9465C2.34626 28.106 2.01015 29.2747 1.67864 30.4387C1.59877 30.7231 1.51715 31.0058 1.4357 31.2879L1.43548 31.2887C1.33125 31.6496 1.2273 32.0096 1.12769 32.3711C1.07549 32.562 1.02133 32.7529 0.967125 32.944C0.817575 33.4713 0.66764 33.9999 0.557306 34.5333L0.538719 34.625C0.409874 35.259 0.258983 36.0014 0.589352 36.5871C0.862852 37.0729 1.41328 37.291 1.95604 37.169C2.33782 37.08 2.68816 36.8303 2.98337 36.5808C3.45843 36.1881 3.8969 35.7588 4.28962 35.2837C4.48831 35.0393 4.68245 34.7811 4.87199 34.5275C4.96028 36.1892 5.01082 37.851 5.06126 39.5095L5.0769 40.0222C5.14489 42.2596 5.25425 44.4923 5.37738 46.7295C5.43817 47.7903 5.49248 48.8511 5.54678 49.9116C5.6218 51.3769 5.69679 52.8416 5.7888 54.3047L5.8022 54.5142C5.87902 55.7163 5.95559 56.9146 6.09782 58.1126C6.12413 58.3297 6.14862 58.5476 6.17315 58.7658C6.25184 59.466 6.33087 60.1692 6.47139 60.8587C6.54782 61.2305 6.65644 61.5976 6.9309 61.8721C7.06813 62.0093 7.25143 62.1188 7.44417 62.173C7.6034 62.5261 7.933 62.8003 8.33262 62.8307C8.46716 62.8418 8.59988 62.8398 8.73194 62.8379L8.73259 62.8379C8.80771 62.8368 8.88261 62.8357 8.95751 62.8371C9.0305 62.8386 9.10196 62.8417 9.17283 62.8447C9.27592 62.8491 9.37776 62.8535 9.48124 62.8531C9.78207 62.8581 10.08 62.8503 10.3777 62.8424C10.7211 62.8334 11.0643 62.8244 11.4112 62.8351C12.1462 62.8869 12.8858 62.9249 13.6257 62.9078C14.3426 62.8862 15.0502 62.8922 15.7669 62.9257L15.7622 62.9303L15.9384 62.9415C16.8265 62.9975 17.7178 63.0538 18.6008 63.1748C18.8867 63.2136 19.1718 63.2574 19.4568 63.3011C20.1193 63.4029 20.7813 63.5045 21.4526 63.5433C21.5537 63.5474 21.6548 63.5538 21.7558 63.5603C21.8311 63.5651 21.9064 63.5699 21.9817 63.5737C22.2395 63.5913 22.4974 63.6013 22.7553 63.6113C22.9427 63.6185 23.1304 63.6258 23.3178 63.6359C23.3971 63.6425 23.4765 63.6494 23.5558 63.6563C23.7283 63.7146 23.9148 63.7338 24.0985 63.7061L24.4006 63.7348ZM7.60214 19.1358C7.86721 18.3676 8.13513 17.6002 8.40575 16.8337C8.64891 16.9875 8.89003 17.1461 9.13116 17.3046C9.28461 17.4051 9.44003 17.5058 9.59587 17.6067C9.79348 17.7347 9.99253 17.8637 10.1897 17.9937C11.1883 18.6693 12.1823 19.3494 13.1717 20.0434C14.0649 20.6688 14.9581 21.3035 15.8004 21.9889C16.2105 22.3242 16.6171 22.6611 17.0237 22.9979C17.5702 23.4507 18.1169 23.9036 18.6708 24.3516C19.0783 24.676 19.518 24.9773 19.9487 25.2694C20.1061 25.3745 20.2631 25.4801 20.4201 25.5857C20.7334 25.7966 21.0467 26.0074 21.3642 26.2141C21.3497 26.2069 21.3359 26.199 21.3228 26.1909C21.3045 26.1786 21.2862 26.1665 21.268 26.1548L21.2818 26.1641C21.2946 26.1727 21.3082 26.1819 21.3228 26.1909C21.3496 26.209 21.3765 26.2275 21.4035 26.2462C21.4875 26.3042 21.5728 26.3631 21.662 26.4104C21.7078 26.4469 21.7582 26.4789 21.8086 26.5108C21.9081 26.573 22.0074 26.6379 22.1072 26.7032C22.2896 26.8224 22.4737 26.9427 22.6645 27.0502L22.7198 27.2059C22.7561 27.3082 22.7923 27.4104 22.8287 27.5125C23.0234 28.1687 23.2088 28.8249 23.3666 29.4905C23.5063 30.0918 23.6322 30.6978 23.7489 31.3038C24.1475 33.6132 24.4126 35.9371 24.6686 38.2702C24.6964 38.52 24.7234 38.7699 24.7497 39.0199C24.6511 38.8516 24.5094 38.7053 24.3317 38.5979C24.2966 38.5779 24.2614 38.5552 24.2255 38.532L24.1908 38.5096C24.1723 38.4978 24.1537 38.4861 24.1346 38.4747C23.9514 38.3561 23.7727 38.2328 23.5895 38.105C22.9055 37.6302 22.1926 37.2005 21.4798 36.7708C21.1234 36.5559 20.767 36.3411 20.4142 36.1206C19.6153 35.6251 18.8281 35.1178 18.0409 34.6106L18.04 34.61C17.7261 34.4077 17.4117 34.2051 17.097 34.0035C16.0115 33.3055 14.9156 32.623 13.8203 31.9409C12.8538 31.3391 11.8876 30.7374 10.9297 30.1257L10.8912 30.0999C9.67181 29.2824 8.45756 28.4684 7.30673 27.5551C6.81221 27.1714 6.06726 27.2942 5.68826 27.783C5.29995 28.2994 5.41162 29.0111 5.90153 29.3995C7.02331 30.2812 8.20979 31.08 9.3917 31.8742C10.2563 32.458 11.143 33.0049 12.0289 33.5513L12.3424 33.7447C13.4879 34.4564 14.6288 35.1726 15.7697 35.8981C16.2199 36.183 16.6675 36.4723 17.1148 36.7615L17.1158 36.7621C17.6923 37.1348 18.2682 37.5071 18.8486 37.8691C19.2865 38.1441 19.7288 38.4131 20.1709 38.6821L20.1717 38.6826C20.756 39.038 21.3405 39.3935 21.9141 39.7622C22.3355 40.0544 22.7523 40.342 23.1876 40.6111C23.6367 40.8848 24.2208 40.7672 24.5809 40.398C24.6501 40.3288 24.7102 40.2504 24.7611 40.1629C24.7957 40.1011 24.824 40.0379 24.8463 39.974C25.0272 41.8299 25.1689 43.6901 25.2836 45.5504C25.3604 46.8458 25.4418 48.1458 25.5417 49.4366C25.5817 49.9557 25.6254 50.4747 25.669 50.9942L25.6692 50.9955C25.7248 51.6569 25.7804 52.319 25.8289 52.9826C25.8594 53.5354 25.8843 54.0882 25.9041 54.6415C25.3686 54.2977 24.808 53.9951 24.2473 53.6924C23.6951 53.3943 23.1426 53.0961 22.6134 52.7582C21.7892 52.1947 21.0192 51.5592 20.2499 50.9243C20.0657 50.7722 19.8816 50.6203 19.6968 50.4693C19.126 50.0032 18.5676 49.5166 18.0092 49.03C17.73 48.7867 17.4509 48.5435 17.1701 48.3028C16.1495 47.4205 15.1379 46.5475 14.0987 45.7021C12.1622 44.1256 10.1656 42.6091 8.04414 41.2816C7.85321 41.1636 7.63527 41.1187 7.4204 41.1341C7.41164 40.8872 7.40339 40.6402 7.39568 40.3931L7.38182 39.966C7.35195 39.0444 7.32207 38.1221 7.28792 37.1999C7.32847 37.2228 7.3691 37.2457 7.40982 37.2684C7.75194 37.4629 8.08992 37.6696 8.4279 37.8763C8.59692 37.9797 8.76623 38.0833 8.93578 38.1851C9.61118 38.5956 10.2754 39.0337 10.9393 39.4716L10.9399 39.472C11.1316 39.5984 11.3233 39.7249 11.5152 39.8506C11.4923 39.8369 11.4717 39.8232 11.4511 39.8096C11.4305 39.7959 11.4099 39.7822 11.3869 39.7685C12.8161 40.7637 14.2313 41.782 15.6419 42.8049C16.4296 43.3803 17.2174 43.9465 18.0237 44.4943C18.6126 44.895 19.2234 45.2739 19.8302 45.6504L20.0625 45.7946C20.6215 46.1597 21.1804 46.5339 21.7208 46.9267C21.9308 47.0785 22.1351 47.2416 22.3397 47.4049C22.7196 47.7083 23.1006 48.0124 23.5206 48.2464C23.9744 48.4971 24.5446 48.4026 24.9092 48.0472C24.9785 47.9779 25.0386 47.8995 25.0941 47.8074C25.3998 47.2638 25.2147 46.5432 24.6647 46.2425C24.6463 46.2334 24.6303 46.2242 24.6142 46.2151L24.6012 46.2077L24.5858 46.1992C24.5788 46.1954 24.5715 46.1916 24.5638 46.1878C24.2552 45.9635 23.9533 45.7326 23.652 45.5021C23.1618 45.1271 22.673 44.7532 22.1595 44.4112C21.2707 43.8271 20.3819 43.2613 19.4884 42.7002C18.5814 42.0794 17.6929 41.4401 16.8044 40.7916C15.719 39.9924 14.6243 39.2117 13.5204 38.4401C12.7065 37.8711 11.8717 37.329 11.0376 36.7873C10.8343 36.6553 10.6309 36.5233 10.4281 36.391C10.0356 36.1325 9.62853 35.8935 9.22448 35.6563C9.07207 35.5668 8.91985 35.4774 8.76925 35.3875C8.56766 35.2656 8.36176 35.1496 8.15602 35.0337C7.88474 34.881 7.61368 34.7283 7.35313 34.5622C7.29509 34.5187 7.2335 34.4815 7.16936 34.4507C7.14487 33.9682 7.11806 33.4859 7.08833 33.0037C7.08747 32.9848 7.08646 32.9658 7.08475 32.946L7.08833 33.0037L7.08902 33.0195C7.08954 33.0315 7.09005 33.0435 7.09071 33.0556C7.06557 32.6915 7.03642 32.3281 6.88689 31.9912C6.72767 31.6381 6.44837 31.4142 6.09527 31.255C5.76052 31.1049 5.31454 31.1666 4.98769 31.3014C4.6378 31.45 4.31969 31.6858 4.05197 31.9535C3.83503 32.1704 3.63176 32.4103 3.43768 32.6501C3.48103 32.4989 3.52496 32.3472 3.56906 32.1949C3.64846 31.9206 3.72842 31.6445 3.80648 31.3664C3.92717 30.9539 4.04445 30.5415 4.16162 30.1294C4.31632 29.5854 4.47083 29.042 4.63277 28.5L4.75429 28.0894C5.37149 26.0035 5.98939 23.9153 6.68003 21.851C6.73105 21.7451 6.77295 21.63 6.79645 21.515L6.88028 21.2665C6.89887 21.2205 6.91285 21.1791 6.92221 21.1423C6.92691 21.1193 6.93155 21.1055 6.93621 21.0917C6.95475 21.0458 6.97343 20.9995 6.9828 20.9536C6.99669 20.9306 7.00601 20.903 7.01532 20.8754C7.03845 20.8158 7.06161 20.7472 7.08478 20.6785L7.08513 20.6775C7.08513 20.6775 7.08517 20.6683 7.08979 20.6637C7.10613 20.6061 7.12707 20.5486 7.14801 20.4911C7.16894 20.4335 7.18988 20.376 7.20622 20.3185C7.24622 20.2129 7.27913 20.105 7.31173 19.9982L7.31201 19.9973C7.3248 19.9553 7.33755 19.9136 7.35066 19.8722L7.35528 19.8675L7.35572 19.8662C7.36955 19.8252 7.38336 19.7843 7.39262 19.7479C7.40183 19.7387 7.40187 19.7295 7.40191 19.7203C7.43451 19.6237 7.46827 19.5258 7.50202 19.4281C7.53578 19.3303 7.56953 19.2325 7.60214 19.1358ZM21.2714 23.3703L21.3976 23.4569C21.3966 23.4417 21.3959 23.4264 21.3953 23.4111C21.3751 22.8 21.6858 22.1691 22.3206 22.0008C22.6059 21.926 22.8908 21.9247 23.166 22.0245C23.3946 22.1028 23.6104 22.219 23.8216 22.3328L23.8492 22.3477C24.1895 22.5285 24.528 22.715 24.8657 22.9011L24.8663 22.9014L24.867 22.9017C25.0564 23.0061 25.246 23.1106 25.4352 23.2136C25.9441 23.4548 26.4532 23.6593 26.9854 23.8406C27.3433 23.9585 27.692 24.0764 28.0406 24.2035C27.6798 23.7227 27.3236 23.2372 26.9766 22.7517C26.2461 21.7074 25.5202 20.6675 24.8035 19.6185C23.3976 17.5664 21.9732 15.5235 20.4888 13.5314C20.0613 12.958 19.6316 12.3854 19.2017 11.8127L19.201 11.8116C18.5701 10.9712 17.9391 10.1303 17.3145 9.2862C16.8486 8.6634 16.4059 8.01749 15.9677 7.37618C15.7864 7.11017 15.6068 6.84207 15.4271 6.57366L15.4266 6.57298C14.7645 5.58441 14.0995 4.59158 13.3377 3.68456C13.3033 3.65025 13.2702 3.61479 13.237 3.57932C13.2039 3.54386 13.1707 3.5084 13.1364 3.47409C12.9503 3.98038 12.778 4.49118 12.6057 5.002C12.615 4.97898 12.6231 4.95483 12.6313 4.93067C12.6394 4.90652 12.6476 4.88237 12.6569 4.85935C12.2702 6.03282 11.8835 7.20626 11.4693 8.37066C11.0918 9.44168 10.7 10.5057 10.3098 11.5656L10.1525 11.9929C9.83101 12.8659 9.51263 13.7394 9.19758 14.6139C9.64852 14.8822 10.088 15.1716 10.5275 15.4609C10.6267 15.5263 10.7258 15.5916 10.8251 15.6566L10.8286 15.6589C11.3131 15.9776 11.7976 16.2963 12.2774 16.6196C12.435 16.7263 12.5928 16.833 12.7508 16.9397C13.6264 17.5311 14.5052 18.1248 15.351 18.7516C15.6027 18.9393 15.8524 19.127 16.1015 19.3143L16.1028 19.3153C16.3926 19.5332 16.6817 19.7505 16.9721 19.9665C17.2755 20.1935 17.5696 20.4373 17.8638 20.6812C18.0313 20.8201 18.1991 20.9592 18.3685 21.0951C18.6088 21.2893 18.8434 21.487 19.078 21.6846C19.3126 21.8823 19.5472 22.08 19.7876 22.2742C20.2637 22.6672 20.7629 23.0188 21.2714 23.3703ZM24.6158 61.4517C24.8365 61.4732 25.0571 61.4955 25.2777 61.5177L25.2802 61.518C25.4042 61.5214 25.5286 61.5248 25.6526 61.5222L25.6602 61.5215C25.7164 61.5167 25.7658 61.5125 25.8133 61.5063C25.846 61.3823 25.8788 61.2577 25.9068 61.1383C25.9353 60.9182 25.9547 60.698 25.974 60.4779L25.9741 60.4763C26.0118 59.4661 25.9907 58.4562 25.9696 57.4439L25.9614 57.0456C25.6538 57.1013 25.3222 57.0351 25.0532 56.8413C25.0121 56.8094 24.9708 56.7773 24.9296 56.7546C24.4714 56.4626 24.0086 56.1752 23.5274 55.9062C23.359 55.8136 23.1902 55.7222 23.0214 55.6308C22.3682 55.2769 21.7163 54.9237 21.0938 54.5066C20.4678 54.0798 19.8802 53.5971 19.2933 53.1149C19.1457 52.9937 18.9982 52.8725 18.8502 52.7523C18.4519 52.4278 18.0628 52.1034 17.6691 51.7651C17.145 51.3149 16.6198 50.8635 16.0946 50.4121C15.5693 49.9607 15.0441 49.5094 14.52 49.0591C13.8249 48.4575 13.1128 47.8775 12.3996 47.2966L12.3991 47.2962C12.1263 47.074 11.8533 46.8516 11.5811 46.6279C11.3887 46.4702 11.1908 46.3253 10.9931 46.1805C10.8757 46.0944 10.7584 46.0085 10.6423 45.9199C10.489 45.8061 10.3371 45.691 10.1855 45.576C9.94767 45.3957 9.71046 45.2159 9.46995 45.043C8.8286 44.5906 8.18107 44.1383 7.52734 43.6961C7.59671 45.1646 7.67789 46.6316 7.76058 48.0972C7.77101 48.2814 7.78135 48.4657 7.7916 48.65C8.17018 48.557 8.58679 48.6557 8.87791 48.9468C9.19395 49.2628 9.53221 49.5622 9.87113 49.8621C9.9688 49.9485 10.0665 50.035 10.1638 50.1219C12.0177 51.6804 13.8624 53.2481 15.6932 54.8297C15.8888 54.9998 16.0838 55.171 16.2789 55.3423C16.8599 55.8524 17.4415 56.3632 18.0413 56.8455C18.3064 57.0598 18.5714 57.2719 18.8365 57.484L18.8394 57.4863C19.1045 57.6984 19.3695 57.9104 19.6346 58.1248C19.9587 58.3843 20.3025 58.6243 20.6462 58.8643C20.7442 58.9327 20.8423 59.0012 20.9398 59.0701C20.998 59.1075 21.0561 59.1451 21.1142 59.1826C21.4172 59.3784 21.7196 59.5738 22.035 59.7498C22.2449 59.868 22.4605 59.9778 22.6762 60.0877C22.8515 60.177 23.0268 60.2663 23.1993 60.3603C23.3689 60.456 23.5431 60.5563 23.7126 60.6612C24.0517 60.871 24.3263 61.1087 24.5823 61.4108C24.5935 61.4241 24.6047 61.4377 24.6158 61.4517ZM7.9299 51.2308C7.972 52.0442 8.01286 52.8579 8.05286 53.6708C8.06498 53.8513 8.07685 54.0317 8.08872 54.2122C8.14238 55.0281 8.19605 55.8441 8.27324 56.6599L8.30099 56.9631C8.40057 58.0543 8.50122 59.1573 8.6982 60.2329C8.79426 60.3289 8.88103 60.4434 8.94025 60.558C9.02567 60.5589 9.11108 60.5606 9.19639 60.5623C9.40923 60.5665 9.62177 60.5707 9.83165 60.5632C10.2269 60.543 10.6176 60.5274 11.0127 60.5348C11.3803 60.541 11.7412 60.5672 12.104 60.5935C12.1674 60.5981 12.2308 60.6027 12.2943 60.6071C12.7776 60.6277 13.2565 60.6207 13.7356 60.6138C13.9351 60.6109 14.1346 60.608 14.3345 60.6071C15.1662 60.608 15.9931 60.6502 16.8199 60.7107C17.6422 60.7668 18.4643 60.8503 19.2817 60.9569C19.4136 60.9747 19.5453 60.994 19.6769 61.0141C19.6384 60.9873 19.6002 60.9602 19.5621 60.9327C19.4147 60.8247 19.2653 60.7187 19.1157 60.6126C18.8099 60.3956 18.5031 60.1779 18.2111 59.9417L18.2056 59.9373C17.658 59.5001 17.1104 59.063 16.5629 58.6166C16.2106 58.3323 15.8687 58.0335 15.5261 57.7341C15.3567 57.5861 15.1869 57.4378 15.0158 57.2911C14.6405 56.9619 14.256 56.6328 13.8761 56.3083C12.8188 55.3987 11.7568 54.4937 10.6949 53.5887C10.0861 53.0722 9.48189 52.5603 8.86848 52.0484C8.55334 51.7806 8.23821 51.5097 7.9299 51.2308ZM8.05088 53.6414C8.05018 53.628 8.04933 53.6145 8.04813 53.6007L8.05088 53.6414Z" fill="#FFFFFE"/>
</svg>
